<svg width="24" height="25" viewBox="0 0 24 25" fill="none" xmlns="http://www.w3.org/2000/svg">
    <path id="Vector"
          d="M21.5307 7.78055L9.53068 19.7806C9.46102 19.8503 9.3783 19.9056 9.28726 19.9433C9.19621 19.9811 9.09861 20.0005 9.00005 20.0005C8.90149 20.0005 8.80389 19.9811 8.71285 19.9433C8.6218 19.9056 8.53908 19.8503 8.46943 19.7806L3.21943 14.5306C3.0787 14.3898 2.99963 14.199 2.99963 13.9999C2.99963 13.8009 3.0787 13.61 3.21943 13.4693C3.36016 13.3286 3.55103 13.2495 3.75005 13.2495C3.94907 13.2495 4.13995 13.3286 4.28068 13.4693L9.00005 18.1896L20.4694 6.7193C20.6102 6.57857 20.801 6.49951 21.0001 6.49951C21.1991 6.49951 21.3899 6.57857 21.5307 6.7193C21.6714 6.86003 21.7505 7.05091 21.7505 7.24993C21.7505 7.44895 21.6714 7.63982 21.5307 7.78055Z"
          fill="#E8DDF7"
    />
</svg>
